<svg width="12" height="12" viewBox="0 0 12 12" fill="none" xmlns="http://www.w3.org/2000/svg">
<path d="M0.789474 0H14.2105C14.6053 0 15 0.3 15 0.8C15 1.3 14.7039 1.6 14.2105 1.6H0.789474C0.296053 1.5 0 1.2 0 0.7C0 0.2 0.296053 0 0.789474 0Z" transform="translate(1.13138) rotate(45)" fill="#53d3c1"/>
<path d="M0 0.789474V14.2105C0 14.6053 0.3 15 0.8 15C1.3 15 1.6 14.7039 1.6 14.2105V0.789474C1.5 0.296053 1.2 0 0.7 0C0.2 0 0 0.296053 0 0.789474Z" transform="translate(10.6066) rotate(45)" fill="#53d3c1"/>
</svg>
